<svg xmlns="http://www.w3.org/2000/svg" version="1.1" xmlns:xlink="http://www.w3.org/1999/xlink" xmlns:svgjs="http://svgjs.dev/svgjs" viewBox="0 0 800 800"><defs><linearGradient x1="50%" y1="0%" x2="50%" y2="100%" id="wwwhirl-grad"><stop stop-color="hsl(206, 75%, 49%)" stop-opacity="1" offset="45%"></stop><stop stop-color="hsl(331, 90%, 56%)" stop-opacity="1" offset="100%"></stop></linearGradient></defs><g stroke-width="2" stroke="hsl(265, 55%, 20%)" fill="none" stroke-linecap="round"><path d="M-1233.4999962997433 591.2874559524489C-1171.6249945831296 491.04995317153447 -1060.2499914932246 135.20681829928844 -936.4999880599969 110.14744260405986C-812.7499846267694 85.08806690883127 -763.2499832534784 448.7274519973707 -639.4999798202507 471.0024526153516C-515.749976387023 493.2774532333326 -466.24997501373184 199.43307008113356 -342.49997158050417 217.06744557036853C-218.74996814727683 234.70182105960345 -169.24996677398553 551.0068298349333 -45.49996334075786 555.6474549636794C78.25004009246982 560.2880800924253 127.75004146576066 249.55182147159078 251.50004489898834 239.34244618834953C375.250048332216 229.1330709051082 424.75004970550685 527.9893291963529 548.5000531387345 506.64245360412116C672.2500565719622 485.2955780118894 721.7500579452535 98.82431728991955 845.5000613784814 136.87744334563703C969.2500648117084 174.93056940135452 1018.7500661849995 656.8130827703428 1142.5000696182274 689.2974586715651C1266.2500730514553 721.7818345727875 1315.750074424746 302.0836979289959 1439.5000778579738 292.80244767150384C1563.2500812912017 283.5211974140118 1612.7500826644928 644.7474574356032 1736.5000860977198 644.7474574356032C1860.2500895309477 644.7474574356032 1971.6250926208522 366.1243247056912 2033.5000943374662 292.80244767150384 " transform="rotate(99, 400, 400)"></path><path d="M-1183.999996643066 585.4908267284002C-1123.9999949784708 488.29082403175585 -1015.9999919821994 143.23081445866876 -895.999988653009 118.93081378450768C-775.9999853238187 94.63081311034662 -727.9999839921425 447.2508228931727 -607.999980662952 468.850823492427C-487.99997733376154 490.4508240916813 -439.9999760020853 205.51081618651858 -319.99997267289484 222.6108166609282C-199.99996934370438 239.71081713533786 -151.99996801202815 546.4308256447487 -31.9999646828378 550.9308257695932C88.00003864635255 555.4308258944379 136.00003997802855 254.11081753484072 256.00004330721913 244.21081726018252C376.0000466364095 234.3108169855243 424.0000479680857 524.1108250255191 544.0000512972761 503.41082445123385C664.0000546264666 482.7108238769485 712.0000559581431 107.95081347988676 832.0000592873334 144.8508145036128C952.0000626165238 181.7508155273389 1000.0000639481996 649.0308284912065 1120.0000672773904 680.530829365119C1240.0000706065812 712.0308302390316 1288.000071938257 305.0508189480821 1408.0000752674478 296.0508186983928C1528.000078596638 287.05081844870347 1576.0000799283143 637.3308281666103 1696.0000832575042 637.3308281666103C1816.0000865866946 637.3308281666103 1924.0000895829662 367.15082067093806 1984.0000912475612 296.0508186983928 " transform="rotate(96, 400, 400)"></path><path d="M-1134.4999969863889 579.6942852423883C-1076.3749953738122 485.5317826300143 -971.7499924711742 151.25489835608613 -855.4999892460211 127.71427270299262C-739.2499860208679 104.17364704989907 -692.7499847308065 445.77428152701185 -576.4999815056533 466.69928210753943C-460.24997828050016 487.624282688067 -413.74997699043865 211.58865002994065 -297.49997376528563 228.154275489525C-181.24997054013238 244.71990094910933 -134.749969250071 541.8549091926011 -18.49996602491774 546.2142843135443C97.75003720023551 550.5736594344875 144.25003849029667 258.66990133612774 260.5000417154499 249.07927607005257C376.7500449406032 239.48865080397744 423.25004623066434 520.2324085927225 539.5000494558176 500.1792830363836C655.7500526809708 480.1261574800446 702.2500539710325 117.0773974078911 818.5000571961855 152.82427339962572C934.7500604213387 188.5711493913603 981.2500617113997 641.248661950107 1097.5000649365534 671.7642877967098C1213.7500681617066 702.2799136433126 1260.2500694517676 308.0180277052053 1376.5000726769213 299.29927746331873C1492.750075902075 290.58052722143225 1539.250077192136 629.9142866356545 1655.5000804172887 629.9142866356545C1771.750083642442 629.9142866356545 1876.3750865450797 368.1774043742221 1934.5000881576566 299.29927746331873 " transform="rotate(93, 400, 400)"></path><path d="M-1084.9999973297115 573.8976827212205C-1028.7499957691537 482.7726801931164 -927.4999929601491 159.27892121834728 -814.9999898390331 136.49767058632128C-702.4999867179172 113.71641995429529 -657.4999854694706 444.29767912569474 -544.9999823483547 464.5476796874956C-432.49997922723867 484.7976802492965 -387.4999779787921 217.6664228382065 -274.9999748576762 233.69767328296552C-162.49997173656016 249.72892372772458 -117.4999704881136 537.2789317052972 -4.99996736699768 541.497681822339C107.50003575411847 545.7164319393808 152.5000370025648 263.2289241022585 265.0000401236807 253.94767384476643C377.50004324479687 244.66642358727432 422.5000444932432 516.3539311247696 535.0000476143591 496.94768058637703C647.5000507354753 477.5414300479845 692.500051983922 126.20392030073918 805.0000551050377 160.79767126048236C917.5000582261537 195.3914222202255 962.5000594745998 633.4664343738514 1075.0000625957164 662.9976851931443C1187.5000657168325 692.5289360124373 1232.5000669652786 310.98517542717224 1345.0000700863948 302.54767519308854C1457.5000732075114 294.1101749590048 1502.5000744559575 622.4976840695425 1615.0000775770732 622.4976840695425C1727.5000806981893 622.4976840695425 1828.7500835071937 369.2039270423498 1885.0000850677516 302.54767519308854 " transform="rotate(90, 400, 400)"></path><path d="M-1035.4999976730344 568.1010954588414C-981.124996164495 480.01359301500764 -883.249993449124 167.3029593393975 -774.4999904320451 145.28108372843903C-665.7499874149664 123.25920811748057 -622.2499862081348 442.82109198316675 -513.499983191056 462.3960925262409C-404.7499801739772 481.9710930693151 -361.2499789671456 223.7442109052614 -252.49997595006687 239.24108633519512C-143.74997293298793 254.7379617651289 -100.24997172615633 532.7029694767824 8.500031290922607 536.7810945899228C117.25003430800143 540.8592197030632 160.7500355148327 267.78796212717833 269.5000385319115 258.81608687826935C378.25004154899034 249.8442116293603 421.7500427558218 512.4754689156057 530.5000457729009 493.7160933951596C639.2500487899797 474.9567178747135 682.7500499968114 135.33045845237632 791.50005301389 168.77108438012806C900.2500560309688 202.2117103078798 943.7500572378001 625.6842220563848 1052.5000602548794 654.231097848368C1161.2500632719584 682.7779736403512 1204.7500644787897 313.9523384079283 1313.5000674958687 305.7960881816474C1422.2500705129478 297.6398379553665 1465.750071719779 615.0810967622195 1574.5000747368576 615.0810967622195C1683.2500777539362 615.0810967622195 1781.1250804693072 370.23046496926656 1835.5000819778465 305.7960881816474 " transform="rotate(87, 400, 400)"></path><path d="M-985.9999980163572 562.3045081964626C-933.4999965598363 477.2545058368989 -838.9999939380988 175.3269974604477 -733.9999910250572 154.06449687055675C-628.9999881120157 132.80199628066583 -586.999986946799 441.34450484063865 -481.9999840337573 460.24450536498614C-376.9999811207157 479.14450588933363 -334.99997995549893 229.8219989723163 -229.99997704245743 244.78449938742472C-124.99997412941582 259.74699980253314 -82.99997296419895 528.1270072482675 22.000029948842666 532.0645073575066C127.00003286188416 536.0020074667457 169.0000340271008 272.3470001520982 274.0000369401423 263.6844999117722C379.00003985318403 255.02199967144628 421.0000410184009 508.5970067064418 526.0000439314424 490.48450620394215C631.0000468444839 472.37200570144245 673.000048009701 144.45699660401345 778.0000509227423 176.74449749977376C883.0000538357838 209.03199839553406 925.0000550010002 617.9020097389182 1030.0000579140424 645.4645105035916C1135.0000608270839 673.027011268265 1177.0000619923003 316.91950138868435 1282.0000649053422 309.0445011702062C1387.0000678183842 301.1695009517281 1429.0000689836006 607.6645094548966 1534.000071896642 607.6645094548966C1639.0000748096836 607.6645094548966 1733.5000774314212 371.25700289618334 1786.000078887942 309.0445011702062 " transform="rotate(84, 400, 400)"></path><path d="M-936.4999983596799 556.5079171193864C-885.8749969551777 474.4954148440929 -794.7499944270737 183.35103176680065 -693.4999916180693 162.84790619797724C-592.2499888090649 142.34478062915383 -551.7499876854631 439.86791388341334 -450.4999848764587 458.09291438903415C-349.2499820674542 476.31791489465496 -308.7499809438524 235.8997832246739 -207.499978134848 250.32790862495708C-106.2499753258436 264.7560340252402 -65.74997420224167 523.5510412050555 35.500028606762726 527.3479163103932C136.75003141576713 531.1447914157309 177.2500325393687 276.9060343623207 278.50003534837333 268.55290913057786C379.75003815737773 260.199783898835 420.25003928097954 504.7185406825807 521.5000420899839 487.25291519802744C622.7500448989883 469.78728971347414 663.2500460225904 153.58353094095335 764.5000488315945 184.7179068047222C865.7500516405989 215.85228266849106 906.2500527642003 610.1197936067542 1007.5000555732051 636.697919344118C1108.7500583822098 663.2760450814817 1149.2500595058114 319.8866605547431 1250.5000623148162 312.29291034406776C1351.7500651238206 304.6991601333924 1392.2500662474222 600.2479183328765 1493.5000690564266 600.2479183328765C1594.750071865431 600.2479183328765 1685.8750743935348 372.2835370084029 1736.500075798037 312.29291034406776 " transform="rotate(81, 400, 400)"></path><path d="M-886.9999987030027 550.7113298570075C-838.249997350519 471.7363276659841 -750.4999949160485 191.37506988785083 -652.9999922110812 171.631319340095C-555.4999895061142 151.88756879233912 -516.4999884241272 438.3913267408853 -418.99998571916 455.9413272277794C-321.4999830141928 473.4913277146735 -282.49998193220574 241.97757129172885 -184.99997922723855 255.87132167718664C-87.49997652227137 269.7650720626445 -48.4999754402844 518.9750789765408 49.0000272646829 522.6313290779769C146.5000299696501 526.2875791794132 185.50003105163682 281.4650723872406 283.0000337566041 273.4213221640808C380.5000364615712 265.377571940921 419.5000375435584 500.8400784734168 517.0000402485255 484.02132800681C614.5000429534925 467.2025775402031 653.5000440354795 162.7100690925905 751.0000467404468 192.69131992436792C848.5000494454139 222.67257075614532 887.5000505274006 602.3375812892876 985.0000532323681 627.9313319993416C1082.5000559373357 653.5250827093955 1121.5000570193224 322.85382353549915 1219.0000597242897 315.5413233326266C1316.500062429257 308.22882312975406 1355.5000635112438 592.8313310255535 1453.0000662162106 592.8313310255535C1550.500068921178 592.8313310255535 1638.2500713556483 373.3100749353197 1687.000072708132 315.5413233326266 " transform="rotate(78, 400, 400)"></path><path d="M-837.4999990463255 544.9147425946287C-790.6249977458604 468.97724048787535 -706.2499954050234 199.39910800890107 -612.4999928040934 180.41473248221274C-518.7499902031634 161.4303569555244 -481.2499891627913 436.9147395983573 -387.4999865618613 453.7897400665247C-293.74998396093133 470.6647405346921 -256.2499829205592 248.05535935878373 -162.49998031962923 261.4147347294163C-68.74997771869926 274.7741101000488 -31.249976678327016 514.399116748026 62.50002592260296 517.9147418455609C156.25002852353282 521.4303669430957 193.75002956390495 286.02411041216044 287.5000321648349 278.2897351975837C381.2500347657649 270.55535998300695 418.750035806137 496.96161626425294 512.500038407067 480.7897408155925C606.250041007997 464.6178653669321 643.7500420483689 171.83660724422765 737.5000446492991 200.66473304401362C831.250047250229 229.49285884379958 868.7500482906007 594.555368971821 962.5000508915311 619.1647446545653C1056.2500534924613 643.7741203373095 1093.750054532833 325.8209865162552 1187.5000571337632 318.78973632118544C1281.2500597346934 311.7584861261157 1318.7500607750653 585.4147437182305 1412.500063375995 585.4147437182305C1506.2500659769253 585.4147437182305 1590.6250683177623 374.3366128622365 1637.5000696182274 318.78973632118544 " transform="rotate(75, 400, 400)"></path><path d="M-787.9999993896482 539.1181400734606C-742.9999981412018 466.2181380509775 -661.9999958939982 207.4231308711622 -571.9999933971054 189.1981303655414C-481.9999909002126 170.97312985992062 -445.9999899014554 435.4381371970402 -355.99998740456266 451.63813764648086C-265.99998490766984 467.8381380959216 -229.99998390891267 254.13313216704955 -139.9999814120198 266.9581325228568C-49.99997891512703 279.783132878664 -13.999977916369744 509.8231392607221 76.00002458052302 513.1981393543556C166.0000270774159 516.573139447989 202.00002807617284 290.5831331782912 292.0000305730657 283.1581329722975C382.0000330699586 275.73313276630387 418.0000340687159 493.0831387963 508.0000365656085 477.558138365586C598.0000390625014 462.03313793487195 634.0000400612587 180.96313013707572 724.0000425581513 208.63813090487025C814.000045055044 236.31313167266478 850.0000460538008 586.7731413955654 940.0000485506939 610.3981420509998C1030.0000510475872 634.0231427064342 1066.000052046344 328.78813423822214 1156.0000545432372 322.03813405095525C1246.0000570401298 315.28813386368824 1282.000058038887 577.9981411521185 1372.0000605357795 577.9981411521185C1462.0000630326726 577.9981411521185 1543.0000652798758 375.36313553036416 1588.0000665283223 322.03813405095525 " transform="rotate(72, 400, 400)"></path><path d="M-738.499999732971 533.3215528110818C-695.3749985365432 463.4590508728688 -617.749996382973 215.44716899221243 -531.4999939901174 197.98154350765915C-445.24999159726184 180.51591802310588 -410.7499906401196 433.96155005451214 -324.49998824726396 449.4865504852262C-238.24998585440835 465.0115509159402 -203.74998489726602 260.2109202341045 -117.49998250441035 272.5015455750864C-31.249980111554805 284.79217091606836 3.250020845587528 505.24717703220733 89.50002323844319 508.4815521219394C175.75002563129885 511.71592721167144 210.25002658844085 295.142171203211 296.5000289812965 288.0265460058004C382.75003137415206 280.91092080838985 417.2500323312943 489.20467658713613 503.50003472415005 474.32655117436855C589.7500371170056 459.44842576160096 624.250038074148 190.08966828871286 710.5000404670036 216.61154402451598C796.7500428598591 243.13341976031904 831.2500438170014 578.9909290780988 917.5000462098569 601.6315547062235C1003.7500486027127 624.2721803343481 1038.250049559855 331.7552972189782 1124.500051952711 325.28654703951406C1210.7500543455665 318.81779686004984 1245.2500553027085 570.5815538447955 1331.500057695564 570.5815538447955C1417.7500600884196 570.5815538447955 1495.3750622419898 376.389673457281 1538.5000634384173 325.28654703951406 " transform="rotate(69, 400, 400)"></path><path d="M-689.0000000762938 527.5249655487029C-647.7499989318845 460.69996369475996 -573.4999968719479 223.4712071132626 -490.9999945831295 206.76495664977688C-408.4999922943111 190.05870618629115 -375.4999913787837 432.4849629119841 -292.9999890899653 447.33496332397135C-210.49998680114686 462.1849637359587 -177.49998588561948 266.2887083011594 -94.99998359680103 278.044958627316C-12.499981307982694 289.8012089534726 20.500019607544914 500.6712148036925 103.00002189636325 503.7649648895232C185.5000241851817 506.85871497535385 218.50002510070897 299.70120922813084 301.0000273895273 292.89495903930333C383.50002967834575 286.08870885047577 416.50003059387313 485.32621437797224 499.0000328826916 471.0949639831511C581.50003517151 456.8637135883299 614.5000360870374 199.21620644035 697.0000383758559 224.58495714416165C779.5000406646741 249.9537078479733 812.5000415802015 571.2087167606323 895.0000438690199 592.864967361447C977.5000461578384 614.521217962262 1010.5000470733657 334.72246019973426 1093.0000493621844 328.5349600280729C1175.5000516510029 322.3474598564115 1208.5000525665303 563.1649665374725 1291.0000548553485 563.1649665374725C1373.500057144167 563.1649665374725 1447.7500592041033 377.41621138419777 1489.0000603485128 328.5349600280729 " transform="rotate(66, 400, 400)"></path><path d="M-639.5000004196165 521.728378286324C-600.1249993272259 457.9408765166512 -529.2499973609227 231.49524523431282 -450.4999951761415 215.54836979189463C-371.74999299136033 199.6014943494764 -340.24999211744785 431.00837576945605 -261.4999899326666 445.1833761627167C-182.74998774788537 459.3583765559773 -151.24998687397283 272.36649636821426 -72.49998468919159 283.5883716795456C6.250017495589532 294.8102469908769 37.750018369502186 496.09525257517777 116.50002055428342 499.04837765710704C195.25002273906466 502.0015027390363 226.75002361297697 304.2602472530507 305.5000257977582 297.7633720728062C384.25002798253945 291.2664968925618 415.75002885645176 481.4477521688084 494.5000310412331 467.86337679193366C573.2500332260142 454.27900141505893 604.750034099927 208.34274459198716 683.5000362847081 232.55837026380738C762.2500384694893 256.77399593562757 793.7500393434018 563.4265044431656 872.5000415281829 584.0983800166707C951.2500437129643 604.7702555901758 982.7500445868766 337.6896231804903 1061.5000467716582 331.7833730166317C1140.2500489564395 325.87712285277314 1171.7500498303518 555.7483792301496 1250.5000520151327 555.7483792301496C1329.250054199914 555.7483792301496 1400.1250561662173 378.44274931111454 1439.5000572586077 331.7833730166317 " transform="rotate(63, 400, 400)"></path><path d="M-590.0000617980955 515.9317910239452C-552.5000607577235 455.18178933854244 -485.0000588850538 239.51928335536303 -410.0000568043098 224.33178293401238C-335.0000547235659 209.1442825126617 -305.00005389126824 429.531788626928 -230.0000518105242 443.0317890014619C-155.0000497297802 456.5317893759958 -125.00004889748243 278.4442844352692 -50.00004681673852 289.13178473177516C24.999955264005507 299.81928502828123 54.99995609630321 491.51929034666296 129.99995817704723 494.33179042469084C204.99996025779126 497.1442905027187 234.99996109008873 308.8192852779705 309.99996317083276 302.6317851063091C384.99996525157667 296.4442849346477 414.99996608387437 477.5692899596445 489.9999681646184 464.63178960071616C564.9999702453624 451.6942892417878 594.9999710776601 217.4692827436243 669.9999731584041 240.53178338345307C744.9999752391482 263.59428402328183 774.9999760714454 555.644292125699 849.9999781521897 575.3317926718944C924.9999802329337 595.0192932180896 954.9999810652314 340.6567861612464 1029.9999831459756 335.0317860051905C1104.9999852267197 329.40678584913474 1134.9999860590174 548.3317919228266 1209.999988139761 548.3317919228266C1284.999990220505 548.3317919228266 1352.4999920931746 379.46928723803137 1389.9999931335467 335.0317860051905 " transform="rotate(60, 400, 400)"></path><path d="M-540.5000621414183 510.13518850277717C-504.87506115306485 452.4226869016446 -440.7500593740287 247.54330621762418 -369.5000573973219 233.11518081734104C-298.2500554206151 218.68705541705793 -269.7500546299324 428.0551862256109 -198.50005265322557 440.8801865814181C-127.2500506765187 453.70518693722533 -98.75004988583589 284.522057243535 -27.50004790912908 294.67518252521575C43.74995406757762 304.8283078068965 72.24995485826048 486.94331285935914 143.4999568349673 489.61518793348563C214.74995881167422 492.28706300761206 243.24995960235674 313.3783080441013 314.49996157906355 307.50018288102297C385.74996355577036 301.62205771794464 414.2499643464531 473.6908124916916 485.4999663231599 461.4001871507097C556.7499682998669 449.1095618097278 585.2499690905497 226.5958056364724 656.4999710672564 248.5051812443097C727.7499730439631 270.41455685214703 756.2499738346457 547.8620645494434 827.4999758113527 566.565190068329C898.7499777880596 585.2683155872146 927.2499785787422 343.62393388321334 998.4999805554494 338.2801837349603C1069.749982532156 332.93643358670727 1098.249983322839 540.9151893567146 1169.4999852995454 540.9151893567146C1240.749987276252 540.9151893567146 1304.8749890552883 380.4958099061591 1340.4999900436417 338.2801837349603 " transform="rotate(57, 400, 400)"></path><path d="M-491.000062484741 504.3386012403982C-457.2500615484062 449.66359972353587 -396.5000598630035 255.5673443386744 -329.00005799033397 241.8985939594588C-261.50005611766437 228.2298435802432 -234.50005536859646 426.57859908308285 -167.00005349592686 438.7285994201634C-99.50005162325726 450.87859975724393 -72.5000508741893 290.5998453105899 -5.000049001519756 300.21859557744534C62.499952871149844 309.8373458443007 89.49995362021775 482.36735063084427 156.99995549288735 484.89860070106937C224.49995736555695 487.42985077129447 251.49995811462475 317.9373460690211 318.99995998729435 312.3685959145259C386.49996185996406 306.7998457600306 413.49996260903185 469.8123502825277 480.99996448170145 458.1685999594922C548.499966354371 446.5248496364567 575.4999671034391 235.72234378810953 642.9999689761087 256.47859436395544C710.4999708487783 277.2348449398013 737.4999715978458 540.0798522319768 804.9999734705157 557.7986027235526C872.4999753431855 575.5173532151284 899.4999760922531 346.59109686396937 966.9999779649231 341.5285967235191C1034.4999798375927 336.4660965830689 1061.4999805866605 533.4986020493916 1128.9999824593299 533.4986020493916C1196.4999843319995 533.4986020493916 1257.249986017402 381.52234783307586 1290.9999869537369 341.5285967235191 " transform="rotate(54, 400, 400)"></path><path d="M-441.5000628280638 498.5420139780194C-409.6250619437476 446.9045125454271 -352.2500603519784 263.59138245972457 -288.500058583346 250.68200710157652C-224.75005681471362 237.77263174342846 -199.2500561072606 425.1020119405548 -135.50005433862822 436.57701225890867C-71.75005256999577 448.05201257726253 -46.25005186254276 296.67763337764484 17.499949906089682 305.76200862967494C81.24995167472207 314.84638388170504 106.74995238217502 477.7913884023295 170.49995415080753 480.1820134686532C234.2499559194399 482.57263853497693 259.74995662689275 322.49638409394095 323.49995839552525 317.2370089480288C387.24996016415764 311.9776338021166 412.7499608716106 465.93388807336385 476.499962640243 454.93701276827477C540.2499644088755 443.9401374631857 565.7499651163284 244.84888193974666 629.4999668849609 264.4520074836011C693.2499686535932 284.0551330274556 718.7499693610459 532.2976399145102 782.4999711296787 549.0320153787762C846.2499728983112 565.7663908430422 871.7499736057639 349.5582598447254 935.4999753743966 344.777009712078C999.2499771430291 339.99575957943057 1024.749977850482 526.0820147420686 1088.4999796191141 526.0820147420686C1152.2499813877466 526.0820147420686 1209.6249829795158 382.5488857599927 1241.499983863832 344.777009712078 " transform="rotate(51, 400, 400)"></path><path d="M-392.00006317138656 492.7454267156405C-362.00006233908897 444.14542536731835 -308.0000608409532 271.6154205807748 -248.00005917635804 259.46542024369427C-188.00005751176286 247.31541990661373 -164.00005684592475 423.62542479802676 -104.00005518132951 434.42542509765394C-44.00005351673428 445.2254253972811 -20.000052850896168 302.7554214446997 39.99994881369906 311.30542168190453C99.9999504782943 319.85542191910935 123.99995114413241 473.21542617381476 183.99995280872758 475.465426236237C243.99995447332276 477.7154262986594 267.99995513916076 327.0554221188608 327.99995680375605 322.10542198153166C387.9999584683512 317.1554218442026 411.99995913418934 462.0554258642 471.9999607987845 451.7054255770573C531.9999624633798 441.3554252899147 555.999963129218 253.9754200913838 615.9999647938132 272.42542060324683C675.9999664584084 290.8754211151099 699.9999671242463 524.5154275970438 759.9999687888417 540.2654280339999C819.9999704534371 556.0154284709563 843.999971119275 352.5254228254815 903.9999727838704 348.0254227006368C963.9999744484655 343.52542257579216 987.9999751143037 518.6654274347457 1047.9999767788986 518.6654274347457C1107.9999784434938 518.6654274347457 1161.9999799416296 383.57542368690946 1191.999980773927 348.0254227006368 " transform="rotate(48, 400, 400)"></path><path d="M-342.5000635147093 486.9488394532616C-314.37506273443034 441.3863381892096 -263.7500613299281 279.639458701825 -207.50005976937007 268.248833385812C-151.2500582088121 256.85820806979905 -128.75005758458883 422.1488376554987 -72.50005602403087 432.27383793639916C-16.25005446347285 442.3988382172996 6.249946160750426 308.8332095117546 62.49994772130839 316.84883473413413C118.7499492818664 324.86445995651366 141.24994990608968 468.63946394529995 197.49995146664764 470.7488390038209C253.74995302720572 472.85821406234174 276.2499536514289 331.6144601437806 332.49995521198684 326.9738350150346C388.7499567725449 322.33320988628856 411.2499573967681 458.17696365503616 467.49995895732604 448.4738383858399C523.7499605178841 438.7707131166436 546.2499611421075 263.10195824302093 602.4999627026654 280.39883372289256C658.7499642632233 297.69570920276414 681.2499648874464 516.733215279577 737.4999664480047 531.4988406892235C793.7499680085627 546.26446609887 816.2499686327858 355.49258580623746 872.4999701933439 351.2738356891956C928.7499717539022 347.05508557215376 951.2499723781252 511.2488401274226 1007.4999739386831 511.2488401274226C1063.7499754992411 511.2488401274226 1114.3749769037433 384.60196161382623 1142.4999776840223 351.2738356891956 " transform="rotate(45, 400, 400)"></path><path d="M-293.0000638580321 481.1522521908827C-266.75006312977166 438.62725101110084 -219.5000618189029 287.66349682287523 -167.0000603623821 277.0322465279298C-114.50005890586132 266.4009962329843 -93.50005832325303 420.67225051297066 -41.000056866732166 430.12225077514444C11.49994458978864 439.5722510373182 32.49994517239702 314.91099757880954 84.99994662891777 322.3922477863637C137.49994808543858 329.87349799391797 158.49994866804695 464.06350171678514 210.99995012456782 466.0322517714047C263.49995158108857 468.0010018260242 284.4999521636969 336.17349816870046 336.99995362021764 331.8422480485375C389.4999550767385 327.51099792837454 410.49995565934694 454.29850144587226 462.9999571158677 445.24225119462244C515.4999585723884 436.1860009433726 536.499959154997 272.2284963946581 588.9999606115176 288.37224684253823C641.4999620680384 304.5159972904184 662.4999626506466 508.95100296211046 714.9999641071677 522.7322533444471C767.4999655636884 536.5135037267839 788.4999661462966 358.45974878699354 840.9999676028176 354.5222486777545C893.4999690593386 350.5847485685154 914.4999696419468 503.83225282009965 966.9999710984675 503.83225282009965C1019.4999725549883 503.83225282009965 1066.749973865857 385.62849954074306 1092.9999745941175 354.5222486777545 " transform="rotate(42, 400, 400)"></path><path d="M-243.50006420135486 475.35566492850376C-219.12506352511303 435.8681638329921 -175.25006230787778 295.6875349439254 -126.50006095539416 285.81565967004747C-77.75005960291057 275.9437843961696 -58.25005906191711 419.1956633704426 -9.50005770943352 427.9706636138897C39.249943643050074 436.74566385733675 58.74994418404361 320.9887856458644 107.4999455365272 327.9356608385933C156.2499468890108 334.8825360313223 175.74994743000428 459.4875394882704 224.499948782488 461.31566453898847C273.2499501349715 463.1437895897066 292.7499506759649 340.73253619362026 341.49995202844855 336.71066108204036C390.2499533809321 332.68878597046046 409.7499539219257 450.42003923670836 458.4999552744092 442.010664003405C507.24995662689275 433.6012887701015 526.7499571678862 281.35503454629526 575.4999585203699 296.34565996218396C624.2499598728534 311.33628537807266 643.7499604138468 501.1687906446438 692.4999617663306 513.9656659996708C741.2499631188143 526.7625413546978 760.7499636598077 361.4269117677496 809.4999650122913 357.7706616663133C858.249966364775 354.11441156487706 877.7499669057684 496.41566551277674 926.4999682582518 496.41566551277674C975.2499696107354 496.41566551277674 1019.1249708279706 386.65503746765984 1043.4999715042125 357.7706616663133 " transform="rotate(39, 400, 400)"></path><path d="M-194.00006454467763 469.5590700367303C-171.5000639204544 433.10906902548874 -131.0000627968526 303.7115654355811 -86.00006154840622 294.5990651827707C-41.00006029995981 285.4865649299603 -23.000059800581226 417.7190685985201 21.999941447865126 425.8190688232404C66.99994269631156 433.91906904796076 84.99994319569015 327.0665660835248 129.9999444441366 333.4790662614284C174.99994569258297 339.891566439332 192.9999461919616 454.91156963036104 237.999947440408 456.5990696771778C282.9999486888544 458.2865697239945 300.9999491882329 345.2915665891456 345.99995043667934 341.57906648614875C390.9999516851258 337.8665663831519 408.9999521845044 446.54156939815 453.99995343295075 438.779069182793C498.9999546813972 431.016568967436 516.9999551807758 290.48156506853786 561.9999564292222 304.3190654524351C606.9999576776685 318.1565658363324 624.9999581770469 493.3865706977827 669.9999594254934 505.1990710254999C714.9999606739401 517.011571353217 732.9999611733185 364.39406711911107 777.9999624217651 361.0190670254776C822.9999636702114 357.6440669318441 840.9999641695899 488.99907057605924 885.9999654180363 488.99907057605924C930.9999666664828 488.99907057605924 971.4999677900844 387.6815677651821 993.9999684143077 361.0190670254776 " transform="rotate(36, 400, 400)"></path><path d="M-144.50005725860586 463.76248277435144C-123.87505668640125 430.34998184738 -86.75005565643293 311.7356035566313 -45.50005451202372 303.38247832488844C-4.250053367614527 295.0293530931456 12.249947090149163 416.24248145599205 53.49994823455836 423.6674816619857C94.74994937896759 431.09248186797936 111.24994983673128 333.14435415057966 152.4999509811405 339.022479313658C193.74995212554967 344.9006044767363 210.24995258331347 450.33560740184623 251.49995372772264 451.8824824447616C292.74995487213187 453.42935748767695 309.24995532989556 349.85060461406545 350.49995647430467 346.44747951965167C391.7499576187139 343.0443544252379 408.2499580764776 442.66310718898615 449.4999592208868 435.5474819915755C490.74996036529603 428.43185679416496 507.2499608230597 299.608103220175 548.499961967469 312.2924785720808C589.7499631118781 324.97685392398665 606.2499635696417 485.60435838031617 647.499964714051 496.4324836807235C688.7499658584602 507.260608981131 705.2499663162239 367.36123009986716 746.4999674606332 364.26748001403644C787.7499686050425 361.1737299282057 804.2499690628061 481.58248326873627 845.4999702072153 481.58248326873627C886.7499713516245 481.58248326873627 923.8749723815927 388.7081056920989 944.4999729537974 364.26748001403644 " transform="rotate(33, 400, 400)"></path><path d="M-95.00002708435048 457.9658840678808C-76.25002656416449 427.5908832251794 -42.50002562782966 319.75963023358975 -5.000024587457631 312.1658800229144C32.499976452914325 304.57212981223904 47.49997686906315 414.7658828693722 84.99997790943516 421.51588305663915C122.4999789498072 428.2658832439061 137.49997936595605 339.2221307735428 174.999980406328 344.5658809217958C212.49998144670002 349.9096310700488 227.49998186284887 445.7596337292397 264.9999829032209 447.1658837682536C302.4999839435929 448.57213380726756 317.49998435974163 354.40963119489345 354.9999854001137 351.31588110906273C392.4999864404856 348.22213102323207 407.49998685663445 438.78463353573045 444.99998789700646 432.3158833562663C482.4999889373785 425.8471331768021 497.4999893535273 308.73462992772033 534.9999903938993 320.26588024763475C572.4999914342714 331.7971305675491 587.49999185042 477.82213461875773 624.9999928907921 487.6658848918554C662.4999939311641 497.509635164953 677.499994347313 370.3283816365314 714.9999953876851 367.51588155850345C752.4999964280571 364.70338148047557 767.499996844206 474.1658845173215 804.9999978845777 474.1658845173215C842.4999989249498 474.1658845173215 876.2499998612846 389.7346321749239 895.0000003814707 367.51588155850345 " transform="rotate(30, 400, 400)"></path><path d="M-45.49999691009512 452.1693006201991C-28.62499644192772 424.83179986176793 1.7500044007736335 327.7836721693372 35.500005337108405 320.9492969797294C69.2500062734432 314.11492179012157 82.75000664797716 413.2892995415414 116.50000758431196 419.3642997100817C150.25000852064676 425.43929987862197 163.7500088951807 345.29992265529495 197.5000098315155 350.10929778872264C231.2500107678503 354.9186729221504 244.75001114238427 441.18367531542214 278.50001207871907 442.4493003505347C312.25001301505387 443.71492538564723 325.75001338958776 358.9686730345106 359.50001432592256 356.1842979572629C393.2500152622574 353.3999228800153 406.7500156367913 434.9061751412638 440.5000165731261 429.0842999797461C474.2500175094609 423.26242481822834 487.75001788399493 317.8611718940548 521.5000188203297 328.2392971819777C555.2500197566645 338.61742246990065 568.7500201311983 470.0399261159884 602.5000210675332 478.8993013617763C636.2500220038681 487.7586766075642 649.7500223784019 373.2955484319847 683.500023314737 370.7642983617596C717.2500242510717 368.23304829153443 730.7500246256056 466.7493010246958 764.5000255619403 466.7493010246958C798.2500264982751 466.7493010246958 828.6250273409764 390.7611739165379 845.5000278091438 370.7642983617596 " transform="rotate(27, 400, 400)"></path><path d="M4.000002746582112 446.37271335782026C19.00000316273092 422.0727126836592 46.00000391179877 335.8077102903874 76.00000474409637 329.73271012184716C106.00000557639396 323.6577099533069 118.00000590931302 411.8127123990134 148.00000674161063 417.21271254882697C178.00000757390825 422.6127126986405 190.0000079068273 351.37771072234983 220.00000873912495 355.6527108409523C250.00000957142254 359.9277109595547 262.0000099043416 436.6077130869074 292.0000107366392 437.7327131181185C322.00001156893677 438.8577131493297 334.00001190185577 363.5277110594304 364.0000127341534 361.05271099076583C394.000013566451 358.5777109221013 406.00001389937006 431.02771293210003 436.00001473166765 425.85271278852866C466.00001556396523 420.67771264495735 478.0000158968844 326.9877100456919 508.000016729182 336.2127103016234C538.0000175614796 345.43771055755496 550.0000178943985 462.2577137985219 580.0000187266962 470.13271401699996C610.0000195589939 478.00771423547815 622.0000198919129 376.2627114127407 652.0000207242106 374.0127113503184C682.0000215565082 371.7627112878961 694.0000218894272 459.3327137173728 724.0000227217247 459.3327137173728C754.0000235540223 459.3327137173728 781.0000243030902 391.78771184345476 796.0000247192389 374.0127113503184 " transform="rotate(24, 400, 400)"></path><path d="M53.500002403259344 440.57612609544134C66.62500276738955 419.3136255055504 90.25000342282394 343.8317484114376 116.50000415108434 338.51612326396486C142.75000487934471 333.20049811649216 153.25000517064888 410.33612525648533 179.5000058989093 415.06112538757225C205.7500066271697 419.7861255186591 216.2500069184739 357.45549878940477 242.50000764673428 361.1961238931819C268.75000837499465 364.93674899695895 279.25000866629887 432.03175085839257 305.5000093945593 433.0161258857023C331.7500101228197 434.0005009130121 342.25001041412384 368.08674908435023 368.5000111423842 365.92112402426875C394.75001187064464 363.75549896418727 405.25001216194886 427.14925072293613 431.50001289020923 422.6211255973112C457.7500136184696 418.0930004716863 468.2500139097739 336.11424819732906 494.5000146380342 344.18612342126914C520.7500153662945 352.2579986452092 531.2500156575986 454.47550148105523 557.5000163858592 461.3661266722236C583.7500171141196 468.25675186339197 594.2500174054237 379.22987439349674 620.5000181336842 377.26112433887727C646.7500188619447 375.2923742842577 657.2500191532488 451.91612641004986 683.5000198815092 451.91612641004986C709.7500206097695 451.91612641004986 733.3750212652039 392.81424977037153 746.5000216293341 377.26112433887727 " transform="rotate(21, 400, 400)"></path><path d="M103.00000205993659 434.77953501836515C114.25000237204819 416.55453451274434 134.5000029338491 351.85578271779053 157.00000355807228 347.29953259138534C179.50000418229547 342.74328246498015 188.5000044319848 408.85953429926 211.00000505620795 412.9095344116202C233.50000568043117 416.9595345239804 242.50000593012047 363.5332830417624 265.0000065543437 366.7395331307142C287.5000071785669 369.945783219666 296.5000074282562 427.45578481518055 319.0000080524794 428.2995348385889C341.5000086767026 429.14328486199724 350.50000892639184 372.64578329457277 373.00000955061506 370.7895332430744C395.5000101748383 368.933283191576 404.5000104245276 423.27078469907497 427.00001104875076 419.3895345913965C449.500011672974 415.508284483718 458.5000119226633 345.24078253426893 481.00001254688647 352.15953272621755C503.50001317110963 359.0782829181662 512.5000134207988 446.6932853488913 535.0000140450221 452.59953551275C557.5000146692455 458.5057856766085 566.5000149189347 382.19703355955556 589.0000155431579 380.5095335127388C611.5000161673811 378.82203346592206 620.5000164170704 444.4995352880296 643.0000170412935 444.4995352880296C665.5000176655168 444.4995352880296 685.7500182273176 393.84078388259104 697.0000185394292 380.5095335127388 " transform="rotate(18, 400, 400)"></path><path d="M152.49998645782478 428.9829477559863C161.87498671791775 413.7954473346356 178.74998718608518 359.87982083884077 197.49998770627118 356.0829457335031C216.24998822645716 352.2860706281654 223.7499884345316 407.382947156732 242.4999889547176 410.7579472503655C261.2499894749036 414.132947343999 268.749989682978 369.61107110881727 287.499990203164 372.2829461829438C306.24999072335004 374.9548212570703 313.74999093142446 422.87982258666574 332.4999914516104 423.5829476061727C351.2499919717965 424.2860726256797 358.7499921798708 377.2048213194926 377.49999270005685 375.65794627657726C396.2499932202428 374.11107123366196 403.7499934283172 419.3923224899111 422.49999394850323 416.15794740017907C441.24999446868924 412.92357231044696 448.74999467676366 354.36732068590607 467.49999519694967 360.1329458458633C486.2499957171357 365.8985710058205 493.74999592521 438.91107303142473 512.499996445396 443.8329481679736C531.2499969655821 448.7548233045224 538.7499971736565 385.1641965403116 557.4999976938425 383.7579465012976C576.2499982140286 382.3516964622837 583.749998422103 437.08294798070665 602.4999989422888 437.08294798070665C621.2499994624749 437.08294798070665 638.1249999306423 394.8673218095078 647.5000001907354 383.7579465012976 " transform="rotate(15, 400, 400)"></path><path d="M201.999986114502 423.18635286421284C209.49998632257638 411.0363525271323 222.99998669711033 367.9038513304964 237.99998711325912 364.8663512462263C252.99998752940792 361.82885116195615 258.99998769586745 405.90635238480945 273.99998811201624 408.6063524597162C288.9999885281651 411.306352534623 294.99998869462456 375.6888515464777 309.9999891107734 377.8263516057789C324.9999895269222 379.9638516650801 330.99998969338174 418.3038527287564 345.99999010953053 418.866352744362C360.9999905256793 419.4288527599676 366.9999906921388 381.76385171501795 381.99999110828765 380.52635168068565C396.99999152443644 379.28885164635335 402.99999169089597 415.51385265135275 417.99999210704476 412.9263525795671C432.99999252319355 410.3388525077814 438.99999268965314 363.49385120814867 453.99999310580193 368.10635133611447C468.9999935219507 372.7188514640802 474.9999936884102 431.1288530845637 489.99999410455905 435.0663531938027C504.9999945207079 439.0038533030418 510.9999946871674 388.1313518916731 525.9999951033162 387.00635186046196C540.9999955194651 385.8813518292508 546.9999956859245 429.66635304398915 561.9999961020733 429.66635304398915C576.9999965182221 429.66635304398915 590.499996892756 395.8938521070301 597.9999971008303 387.00635186046196 " transform="rotate(12, 400, 400)"></path><path d="M251.49998577117924 417.3897675091826C257.124985927235 408.27726725637217 267.2499862081355 375.9278913588953 278.4999865202471 373.6497662956927C289.7499868323587 371.3716412324901 294.2499869572033 404.42976714963004 305.49998726931494 406.4547672058101C316.7499875814265 408.4797672619902 321.24998770627116 381.7666415208812 332.4999880183828 383.3697665653571C343.7499883304944 384.972891609833 348.249988455339 413.7278924075903 359.49998876745065 414.14976741929445C370.7499890795622 414.5716424309986 375.24998920440686 386.3228916472864 386.49998951651844 385.3947666215372C397.7499898286301 384.46664159578796 402.2499899534747 411.6353923495375 413.49999026558635 409.6947672956982C424.74999057769793 407.754142241859 429.2499907025426 372.62039126713444 440.49999101465414 376.0797663631088C451.7499913267658 379.5391414590831 456.24999145161036 423.34664267444566 467.499991763722 426.299767756375C478.7499920758337 429.25289283830426 483.24999220067826 391.09851677977775 494.4999925127899 390.2547667563694C505.7499928249015 389.411016732961 510.2499929497461 422.2497676440148 521.4999932618578 422.2497676440148C532.7499935739693 422.2497676440148 542.8749938548697 396.9203919412955 548.4999940109255 390.2547667563694 " transform="rotate(9, 400, 400)"></path><path d="M301.00000068664554 411.5931764321064C304.75000079068275 405.51817626356615 311.5000009779497 383.9519256652482 319.00000118602406 382.43317562311313C326.5000013940985 380.9144255809781 329.5000014773283 402.9531761924047 337.00000168540265 404.3031762298581C344.5000018934771 405.6531762673115 347.5000019767068 387.8444257732388 355.00000218478124 388.91317580288944C362.50000239285566 389.98192583254 365.5000024760854 409.1519263643782 373.00000268415977 409.433176372181C380.5000028922342 409.71442637998376 383.50000297546393 390.881925857509 391.00000318353835 390.2631758403428C398.5000033916127 389.6444258231767 401.5000034748425 407.7569263256764 409.00000368291694 406.4631762897835C416.5000038909913 405.1694262538907 419.5000039742211 381.74692560407436 427.00000418229547 384.05317566805724C434.5000043903699 386.3594257320401 437.50000447359963 415.5644265422818 445.00000468167406 417.53317659690134C452.5000048897485 419.5019266515209 455.5000049729782 394.0656759458366 463.00000518105264 393.50317593023095C470.50000538912707 392.9406759146254 473.5000054723568 414.8331765219946 481.0000056804312 414.8331765219946C488.5000058885056 414.8331765219946 495.25000607577255 397.946926053515 499.0000061798097 393.50317593023095 " transform="rotate(6, 400, 400)"></path><path d="M350.4999965286255 405.79658916972755C352.3749965806441 402.7590890854574 355.74999667427755 391.9759637862984 359.49999677831477 391.2165887652309C363.249996882352 390.45721374416337 364.7499969239669 401.4765890498767 368.49999702800403 402.15158906860336C372.24999713204124 402.82658908733003 373.74999717365614 393.92221384029375 377.49999727769335 394.45658885511904C381.24999738173057 394.9909638699443 382.74999742334546 404.57596413586344 386.4999975273826 404.71658913976484C390.24999763141983 404.8572141436662 391.7499976730347 395.4409638824288 395.49999777707194 395.1315888738457C399.2499978811091 394.82221386526265 400.749997922724 403.87846411651253 404.4999980267612 403.2315890985661C408.2499981307984 402.5847140806197 409.74999817241326 390.8734637557115 413.49999827645047 392.0265887877029C417.2499983804877 393.17971381969437 418.7499984221025 407.7822142248152 422.49999852613973 408.766589252125C426.24999863017695 409.75096427943475 427.74999867179184 397.0328389265926 431.49999877582906 396.7515889187898C435.24999887986627 396.47033891098704 436.74999892148116 407.4165892146716 440.4999990255183 407.4165892146716C444.24999912955553 407.4165892146716 447.624999223189 398.97346398043186 449.4999992752076 396.7515889187898 " transform="rotate(3, 400, 400)"></path></g></svg>